999
trimesh
0
SECTION
2
HEADER
9
$ACADVER
1
AC1014
9
$DWGCODEPAGE
3
ANSI_1252
9
$INSBASE
10
0
20
0
30
0
9
$EXTMIN
10
1.9
20
0.96
30
0
9
$EXTMAX
10
14.8
20
13.68
30
0
9
$LIMMIN
10
0
20
0
9
$LIMMAX
10
12
20
9
9
$ORTHOMODE
70
0
9
$REGENMODE
70
1
9
$FILLMODE
70
1
9
$QTEXTMODE
70
0
9
$MIRRTEXT
70
1
9
$LTSCALE
40
1
9
$ATTMODE
70
1
9
$TEXTSIZE
40
0.2
9
$TRACEWID
40
0.05
9
$TEXTSTYLE
7
STANDARD
9
$CLAYER
8
0
9
$CELTYPE
6
BYBLOCK
9
$CECOLOR
62
256
9
$CELTSCALE
40
1
9
$DISPSILH
70
0
9
$DIMSCALE
40
1
9
$DIMASZ
40
0.18
9
$DIMEXO
40
0.0625
9
$DIMDLI
40
0.38
9
$DIMRND
40
0
9
$DIMDLE
40
0
9
$DIMEXE
40
0.18
9
$DIMTP
40
0
9
$DIMTM
40
0
9
$DIMTXT
40
0.18
9
$DIMCEN
40
0.09
9
$DIMTSZ
40
0
9
$DIMTOL
70
0
9
$DIMLIM
70
0
9
$DIMTIH
70
1
9
$DIMTOH
70
1
9
$DIMSE1
70
0
9
$DIMSE2
70
0
9
$DIMTAD
70
0
9
$DIMZIN
70
0
9
$DIMASO
70
1
9
$DIMSHO
70
1
9
$DIMALT
70
0
9
$DIMALTD
70
2
9
$DIMALTF
40
25.4
9
$DIMLFAC
40
1
9
$DIMTOFL
70
0
9
$DIMTVP
40
0
9
$DIMTIX
70
0
9
$DIMSOXD
70
0
9
$DIMSAH
70
0
9
$DIMSTYLE
2
STANDARD
9
$DIMCLRD
70
0
9
$DIMCLRE
70
0
9
$DIMCLRT
70
0
9
$DIMTFAC
40
1
9
$DIMGAP
40
0.09
9
$DIMJUST
70
0
9
$DIMSD1
70
0
9
$DIMSD2
70
0
9
$DIMTOLJ
70
1
9
$DIMTZIN
70
0
9
$DIMALTZ
70
0
9
$DIMALTTZ
70
0
9
$DIMUPT
70
0
9
$DIMDEC
70
4
9
$DIMTDEC
70
4
9
$DIMALTU
70
2
9
$DIMALTTD
70
2
9
$DIMTXSTY
7
STANDARD
9
$DIMAUNIT
70
0
9
$DIMADEC
70
0
9
$DIMALTRND
40
0
9
$DIMAZIN
70
0
9
$DIMDSEP
70
44
9
$DIMATFIT
70
3
9
$DIMFRAC
70
0
9
$DIMLDRBLK
1
STANDARD
9
$DIMUNIT
70
2
9
$DIMLWD
70
-2
9
$DIMLWE
70
-2
9
$DIMTMOVE
70
0
9
$LUNITS
70
1
9
$LUPREC
70
4
9
$SKETCHINC
40
0.1
9
$FILLETRAD
40
0.5
9
$AUNITS
70
0
9
$AUPREC
70
0
9
$MENU
1
.
9
$ELEVATION
40
0
9
$PELEVATION
40
0
9
$THICKNESS
40
0
9
$LIMCHECK
70
0
9
$BLIPMODE
70
0
9
$CHAMFERA
40
0
9
$CHAMFERB
40
0
9
$CHAMFERC
40
0
9
$CHAMFERD
40
0
9
$SKPOLY
70
0
9
$USRTIMER
70
1
9
$ANGBASE
50
0
9
$ANGDIR
70
0
9
$PDMODE
70
0
9
$PDSIZE
40
0
9
$PLINEWID
40
0
9
$SPLFRAME
70
0
9
$SPLINETYPE
70
6
9
$SPLINESEGS
70
8
9
$HANDSEED
5
20000
9
$SURFTAB1
70
6
9
$SURFTAB2
70
6
9
$SURFTYPE
70
6
9
$SURFU
70
6
9
$SURFV
70
6
9
$UCSORG
10
0
20
0
30
0
9
$UCSXDIR
10
1
20
0
30
0
9
$UCSYDIR
10
0
20
1
30
0
9
$UCSORTHOVIEW
70
0
9
$UCSORGTOP
10
0
20
0
30
0
9
$UCSORGBOTTOM
10
0
20
0
30
0
9
$UCSORGLEFT
10
0
20
0
30
0
9
$UCSORGRIGHT
10
0
20
0
30
0
9
$UCSORGFRONT
10
0
20
0
30
0
9
$UCSORGBACK
10
0
20
0
30
0
9
$PUCSORG
10
0
20
0
30
0
9
$PUCSXDIR
10
1
20
0
30
0
9
$PUCSYDIR
10
0
20
1
30
0
9
$PUCSORTHOVIEW
70
0
9
$PUCSORGTOP
10
0
20
0
30
0
9
$PUCSORGBOTTOM
10
0
20
0
30
0
9
$PUCSORGLEFT
10
0
20
0
30
0
9
$PUCSORGRIGHT
10
0
20
0
30
0
9
$PUCSORGFRONT
10
0
20
0
30
0
9
$PUCSORGBACK
10
0
20
0
30
0
9
$USERI1
70
0
9
$USERI2
70
0
9
$USERI3
70
0
9
$USERI4
70
0
9
$USERI5
70
0
9
$USERR1
40
0
9
$USERR2
40
0
9
$USERR3
40
0
9
$USERR4
40
0
9
$USERR5
40
0
9
$WORLDVIEW
70
1
9
$SHADEDGE
70
3
9
$SHADEDIF
70
70
9
$TILEMODE
70
1
9
$MAXACTVP
70
64
9
$PINSBASE
10
0
20
0
30
0
9
$PLIMCHECK
70
0
9
$PEXTMIN
10
1e+20
20
1e+20
30
1e+20
9
$PEXTMAX
10
-1e+20
20
-1e+20
30
-1e+20
9
$GRIDMODE
70
0
9
$SNAPSTYLE
70
0
9
$PLIMMIN
10
0
20
0
9
$PLIMMAX
10
0
20
0
9
$UNITMODE
70
0
9
$VISRETAIN
70
1
9
$PLINEGEN
70
0
9
$PSLTSCALE
70
1
9
$TREEDEPTH
70
3020
9
$CMLSTYLE
2
STANDARD
9
$CMLJUST
70
0
9
$CMLSCALE
40
1
9
$PROXYGRAPHICS
70
1
9
$MEASUREMENT
70
0
9
$CELWEIGHT
370
-1
9
$ENDCAPS
280
0
9
$JOINSTYLE
280
0
9
$LWDISPLAY
290
0
9
$XEDIT
290
1
9
$CEPSNTYPE
380
0
9
$PSTYLEMODE
290
1
9
$EXTNAMES
290
1
9
$PSVPSCALE
40
1
9
$OLESTARTUP
290
0
0
ENDSEC
0
SECTION
2
CLASSES
0
ENDSEC
0
SECTION
2
TABLES
0
TABLE
2
VPORT
5
8
100
AcDbSymbolTable
70
1
0
VPORT
5
31
330
2
100
AcDbSymbolTableRecord
100
AcDbViewportTableRecord
2
*ACTIVE
70
0
10
0
20
0
11
1
21
1
12
354.791887455375
22
270.82508654025
13
0
23
0
14
10
24
10
15
10
25
10
16
0
26
0
36
1
17
0
27
0
37
0
40
650.7886407907502
41
1.281197063805759
42
50
43
0
44
0
50
0
51
0
71
0
72
100
73
1
74
3
75
0
76
0
77
0
78
0
0
ENDTAB
0
TABLE
2
LTYPE
5
5
100
AcDbSymbolTable
70
4
0
LTYPE
5
14
100
AcDbSymbolTableRecord
100
AcDbLinetypeTableRecord
2
ByBlock
70
0
72
65
73
0
40
0
0
LTYPE
5
15
100
AcDbSymbolTableRecord
100
AcDbLinetypeTableRecord
2
ByLayer
70
0
72
65
73
0
40
0
0
LTYPE
5
16
100
AcDbSymbolTableRecord
100
AcDbLinetypeTableRecord
2
Continuous
70
0
3
Solid line
72
65
73
0
40
0
0
LTYPE
5
32
330
5
100
AcDbSymbolTableRecord
100
AcDbLinetypeTableRecord
2
DOT
70
0
3
Dot . . . . . . . . . . . . . . . . . . . . . .
72
65
73
2
40
6.35
49
0
74
0
49
-6.35
74
0
0
LTYPE
5
33
330
5
100
AcDbSymbolTableRecord
100
AcDbLinetypeTableRecord
2
DOTTINY
70
0
3
Dot (.15x) .....................................
72
65
73
2
40
0.9525
49
0
74
0
49
-0.9525
74
0
0
LTYPE
5
34
330
5
100
AcDbSymbolTableRecord
100
AcDbLinetypeTableRecord
2
DOT2
70
0
3
Dot (.5x) .....................................
72
65
73
2
40
3.175
49
0
74
0
49
-3.175
74
0
0
LTYPE
5
35
330
5
100
AcDbSymbolTableRecord
100
AcDbLinetypeTableRecord
2
DOTX2
70
0
3
Dot (2x) .  .  .  .  .  .  .  .  .  .  .  .  .
72
65
73
2
40
12.7
49
0
74
0
49
-12.7
74
0
0
LTYPE
5
36
330
5
100
AcDbSymbolTableRecord
100
AcDbLinetypeTableRecord
2
DASHED
70
0
3
Dashed _ _ _ _ _ _ _ _ _ _ _ _ _ _ _ _ _
72
65
73
2
40
19.05
49
12.7
74
0
49
-6.35
74
0
0
LTYPE
5
37
330
5
100
AcDbSymbolTableRecord
100
AcDbLinetypeTableRecord
2
DASHEDTINY
70
0
3
Dashed (.15x) _ _ _ _ _ _ _ _ _ _ _ _ _ _ _ _ _
72
65
73
2
40
2.8575
49
1.905
74
0
49
-0.9525
74
0
0
LTYPE
5
38
330
5
100
AcDbSymbolTableRecord
100
AcDbLinetypeTableRecord
2
DASHED2
70
0
3
Dashed (.5x) _ _ _ _ _ _ _ _ _ _ _ _ _ _ _ _ _
72
65
73
2
40
9.524999999999999
49
6.35
74
0
49
-3.175
74
0
0
LTYPE
5
39
330
5
100
AcDbSymbolTableRecord
100
AcDbLinetypeTableRecord
2
DASHEDX2
70
0
3
Dashed (2x) ____  ____  ____  ____  ____  ___
72
65
73
2
40
38.09999999999999
49
25.4
74
0
49
-12.7
74
0
0
LTYPE
5
3A
330
5
100
AcDbSymbolTableRecord
100
AcDbLinetypeTableRecord
2
DASHDOT
70
0
3
Dash dot __ . __ . __ . __ . __ . __ . __ . __
72
65
73
4
40
25.4
49
12.7
74
0
49
-6.35
74
0
49
0
74
0
49
-6.35
74
0
0
LTYPE
5
3B
330
5
100
AcDbSymbolTableRecord
100
AcDbLinetypeTableRecord
2
DASHDOTTINY
70
0
3
Dash dot (.15x) _._._._._._._._._._._._._._._.
72
65
73
4
40
3.81
49
1.905
74
0
49
-0.9525
74
0
49
0
74
0
49
-0.9525
74
0
0
LTYPE
5
3C
330
5
100
AcDbSymbolTableRecord
100
AcDbLinetypeTableRecord
2
DASHDOT2
70
0
3
Dash dot (.5x) _._._._._._._._._._._._._._._.
72
65
73
4
40
12.7
49
6.35
74
0
49
-3.175
74
0
49
0
74
0
49
-3.175
74
0
0
LTYPE
5
3D
330
5
100
AcDbSymbolTableRecord
100
AcDbLinetypeTableRecord
2
DASHDOTX2
70
0
3
Dash dot (2x) ____  .  ____  .  ____  .  ___
72
65
73
4
40
50.8
49
25.4
74
0
49
-12.7
74
0
49
0
74
0
49
-12.7
74
0
0
LTYPE
5
3E
330
5
100
AcDbSymbolTableRecord
100
AcDbLinetypeTableRecord
2
DIVIDE
70
0
3
Divide ____ . . ____ . . ____ . . ____ . . ____
72
65
73
6
40
31.75
49
12.7
74
0
49
-6.35
74
0
49
0
74
0
49
-6.35
74
0
49
0
74
0
49
-6.35
74
0
0
LTYPE
5
3F
330
5
100
AcDbSymbolTableRecord
100
AcDbLinetypeTableRecord
2
DIVIDETINY
70
0
3
Divide (.15x) __..__..__..__..__..__..__..__.._
72
65
73
6
40
4.7625
49
1.905
74
0
49
-0.9525
74
0
49
0
74
0
49
-0.9525
74
0
49
0
74
0
49
-0.9525
74
0
0
LTYPE
5
40
330
5
100
AcDbSymbolTableRecord
100
AcDbLinetypeTableRecord
2
DIVIDE2
70
0
3
Divide (.5x) __..__..__..__..__..__..__..__.._
72
65
73
6
40
15.875
49
6.35
74
0
49
-3.175
74
0
49
0
74
0
49
-3.175
74
0
49
0
74
0
49
-3.175
74
0
0
LTYPE
5
41
330
5
100
AcDbSymbolTableRecord
100
AcDbLinetypeTableRecord
2
DIVIDEX2
70
0
3
Divide (2x) ________  .  .  ________  .  .  _
72
65
73
6
40
63.5
49
25.4
74
0
49
-12.7
74
0
49
0
74
0
49
-12.7
74
0
49
0
74
0
49
-12.7
74
0
0
LTYPE
5
42
330
5
100
AcDbSymbolTableRecord
100
AcDbLinetypeTableRecord
2
BORDER
70
0
3
Border __ __ . __ __ . __ __ . __ __ . __ __ .
72
65
73
6
40
44.45
49
12.7
74
0
49
-6.35
74
0
49
12.7
74
0
49
-6.35
74
0
49
0
74
0
49
-6.35
74
0
0
LTYPE
5
43
330
5
100
AcDbSymbolTableRecord
100
AcDbLinetypeTableRecord
2
BORDERTINY
70
0
3
Border (.15x) __.__.__.__.__.__.__.__.__.__.__.
72
65
73
6
40
6.6675
49
1.905
74
0
49
-0.9525
74
0
49
1.905
74
0
49
-0.9525
74
0
49
0
74
0
49
-0.9525
74
0
0
LTYPE
5
44
330
5
100
AcDbSymbolTableRecord
100
AcDbLinetypeTableRecord
2
BORDER2
70
0
3
Border (.5x) __.__.__.__.__.__.__.__.__.__.__.
72
65
73
6
40
22.225
49
6.35
74
0
49
-3.175
74
0
49
6.35
74
0
49
-3.175
74
0
49
0
74
0
49
-3.175
74
0
0
LTYPE
5
45
330
5
100
AcDbSymbolTableRecord
100
AcDbLinetypeTableRecord
2
BORDERX2
70
0
3
Border (2x) ____  ____  .  ____  ____  .  ___
72
65
73
6
40
88.89999999999999
49
25.4
74
0
49
-12.7
74
0
49
25.4
74
0
49
-12.7
74
0
49
0
74
0
49
-12.7
74
0
0
LTYPE
5
46
330
5
100
AcDbSymbolTableRecord
100
AcDbLinetypeTableRecord
2
CENTER
70
0
3
Center ____ _ ____ _ ____ _ ____ _ ____ _ ____
72
65
73
4
40
50.8
49
31.75
74
0
49
-6.35
74
0
49
6.35
74
0
49
-6.35
74
0
0
LTYPE
5
47
330
5
100
AcDbSymbolTableRecord
100
AcDbLinetypeTableRecord
2
CENTERTINY
70
0
3
Center (.15x) ___ _ ___ _ ___ _ ___ _ ___ _ ___
72
65
73
4
40
7.619999999999999
49
4.7625
74
0
49
-0.9525
74
0
49
0.9525
74
0
49
-0.9525
74
0
0
LTYPE
5
48
330
5
100
AcDbSymbolTableRecord
100
AcDbLinetypeTableRecord
2
CENTER2
70
0
3
Center (.5x) ___ _ ___ _ ___ _ ___ _ ___ _ ___
72
65
73
4
40
28.575
49
19.05
74
0
49
-3.175
74
0
49
3.175
74
0
49
-3.175
74
0
0
LTYPE
5
49
330
5
100
AcDbSymbolTableRecord
100
AcDbLinetypeTableRecord
2
CENTERX2
70
0
3
Center (2x) ________  __  ________  __  _____
72
65
73
4
40
101.6
49
63.5
74
0
49
-12.7
74
0
49
12.7
74
0
49
-12.7
74
0
0
ENDTAB
0
TABLE
2
LAYER
5
2
100
AcDbSymbolTable
70
1
0
LAYER
5
10
330
2
100
AcDbSymbolTableRecord
100
AcDbLayerTableRecord
2
0
70
0
62
7
6
CONTINUOUS
370
0
390
F
0
LAYER
5
4A
330
2
100
AcDbSymbolTableRecord
100
AcDbLayerTableRecord
2
None
70
0
62
7
6
CONTINUOUS
370
-3
390
F
0
ENDTAB
0
TABLE
2
STYLE
5
3
100
AcDbSymbolTable
70
3
0
STYLE
5
4B
330
2
100
AcDbSymbolTableRecord
100
AcDbTextStyleTableRecord
2
Standard
70
0
40
0
41
1
50
0
71
0
42
1
3
txt
0
ENDTAB
0
TABLE
2
VIEW
5
6
100
AcDbSymbolTable
70
0
0
ENDTAB
0
TABLE
2
UCS
5
7
100
AcDbSymbolTable
70
0
0
ENDTAB
0
TABLE
2
APPID
5
9
100
AcDbSymbolTable
70
1
0
APPID
5
12
100
AcDbSymbolTableRecord
100
AcDbRegAppTableRecord
2
ACAD
70
0
0
APPID
5
4C
100
AcDbSymbolTableRecord
100
AcDbRegAppTableRecord
2
LibreCad
70
0
0
ENDTAB
0
TABLE
2
DIMSTYLE
5
A
100
AcDbSymbolTable
70
1
0
DIMSTYLE
105
4D
330
A
100
AcDbSymbolTableRecord
100
AcDbDimStyleTableRecord
2
Standard
70
0
40
1
41
0.18
42
0.0625
43
0.38
44
0.18
45
0
46
0
47
0
48
0
49
1
140
0.18
141
0.09
142
0
143
25.4
144
1
145
0
146
1
147
0.09
71
0
72
0
73
1
74
1
75
0
76
0
77
0
78
0
170
0
171
2
172
0
173
0
174
0
175
0
176
0
177
0
178
0
270
2
271
4
272
4
273
2
274
2
275
0
280
0
281
0
282
0
283
1
284
0
285
0
286
0
287
3
288
0
340
STANDARD
0
ENDTAB
0
TABLE
2
BLOCK_RECORD
5
1
100
AcDbSymbolTable
70
2
0
BLOCK_RECORD
5
1F
100
AcDbSymbolTableRecord
100
AcDbBlockTableRecord
2
*Model_Space
0
BLOCK_RECORD
5
1E
100
AcDbSymbolTableRecord
100
AcDbBlockTableRecord
2
*Paper_Space
0
ENDTAB
0
ENDSEC
0
SECTION
2
BLOCKS
0
BLOCK
5
20
100
AcDbEntity
8
0
100
AcDbBlockBegin
2
*Model_Space
70
0
10
0
20
0
30
0
3
*Model_Space
0
ENDBLK
5
21
100
AcDbEntity
8
0
100
AcDbBlockEnd
0
BLOCK
5
1C
100
AcDbEntity
8
0
100
AcDbBlockBegin
2
*Paper_Space
70
0
10
0
20
0
30
0
3
*Paper_Space
0
ENDBLK
5
1D
100
AcDbEntity
8
0
100
AcDbBlockEnd
0
ENDSEC
0
SECTION
2
ENTITIES
0
LWPOLYLINE
5
1749240395184
330
1F
100
AcDbEntity
8
None
62
255
100
AcDbPolyline
90
17
70
1
43
0.0
10
5.84
20
12.64
10
5.7
20
12.7
10
5.74
20
13.5
10
2.3
20
13.54
10
2.3
20
12.88
10
4.2
20
12.86
10
3.1
20
12.86
10
3.16
20
12.74
10
3.36
20
12.78
10
3.4
20
12.68
10
3.28
20
12.68
10
3.06
20
12.86
10
2.26
20
12.84
10
2.24
20
13.56
10
5.76
20
13.56
10
5.72
20
12.8
10
5.84
20
12.64
0
LWPOLYLINE
5
1749240395632
330
1F
100
AcDbEntity
8
None
62
255
100
AcDbPolyline
90
16
70
1
43
0.0
10
10.46
20
9.22
10
10.38
20
9.34
10
9.84
20
9.32
10
9.84
20
12.64
10
9.9
20
12.64
10
9.84
20
12.5
10
9.88
20
9.34
10
10.42
20
9.36
10
10.5
20
9.5
10
10.44
20
10.14
10
10.72
20
10.12
10
10.7
20
10.02
10
10.5
20
10.1
10
10.54
20
9.34
10
10.46
20
9.32
10
10.46
20
9.22
0
LWPOLYLINE
5
1749240395744
330
1F
100
AcDbEntity
8
None
62
255
100
AcDbPolyline
90
33
70
1
43
0.0
10
2.12
20
9.14
10
2.14
20
13.68
10
5.9
20
13.68
10
5.92
20
12.86
10
7.06
20
12.86
10
7.1
20
13.56
10
9.7
20
13.52
10
9.62
20
9.28
10
9.56
20
13.52
10
7.34
20
13.52
10
7.34
20
11.6
10
8.36
20
11.6
10
8.38
20
12.64
10
8.58
20
11.6
10
9.44
20
11.6
10
8.52
20
11.52
10
8.42
20
12.62
10
8.42
20
11.52
10
7.32
20
11.58
10
7.34
20
11.1
10
8.42
20
11.18
10
8.4
20
10.34
10
8.36
20
11.1
10
7.32
20
11.08
10
7.32
20
9.38
10
7.28
20
13.54
10
7.08
20
12.72
10
5.9
20
12.84
10
5.74
20
13.66
10
2.16
20
13.64
10
2.14
20
9.18
10
4.1
20
9.46
10
2.12
20
9.14
0
LWPOLYLINE
5
1749240395520
330
1F
100
AcDbEntity
8
None
62
255
100
AcDbPolyline
90
20
70
1
43
0.0
10
14.58
20
8.94
10
14.42
20
9.34
10
12.84
20
9.26
10
14.58
20
9.44
10
14.78
20
11.52
10
14.54
20
11.6
10
14.42
20
12.62
10
14.76
20
11.56
10
14.74
20
13.66
10
11.1
20
13.64
10
11.04
20
12.84
10
9.84
20
12.84
10
9.74
20
13.56
10
9.88
20
12.86
10
11.02
20
12.86
10
11.04
20
13.68
10
14.8
20
13.66
10
14.8
20
10.36
10
14.56
20
10.36
10
14.58
20
8.94
0
LWPOLYLINE
5
1749240396080
330
1F
100
AcDbEntity
8
None
62
255
100
AcDbPolyline
90
33
70
1
43
0.0
10
8.64
20
8.52
10
8.64
20
8.58
10
8.54
20
8.64
10
8.52
20
9.22
10
8.56
20
9.28
10
8.52
20
9.3
10
8.54
20
9.38
10
8.5
20
9.44
10
8.44
20
9.44
10
8.4
20
9.38
10
8.4
20
8.64
10
8.36
20
8.6
10
8.34
20
8.64
10
8.34
20
8.86
10
8.4
20
8.88
10
8.4
20
8.92
10
8.34
20
8.94
10
8.34
20
9.24
10
8.38
20
9.3
10
8.28
20
9.34
10
8.32
20
9.44
10
8.44
20
9.48
10
8.62
20
9.44
10
8.64
20
9.32
10
8.56
20
9.3
10
8.6
20
9.24
10
8.6
20
8.94
10
8.54
20
8.92
10
8.54
20
8.88
10
8.6
20
8.86
10
8.6
20
8.64
10
8.64
20
8.62
10
8.64
20
8.52
0
LWPOLYLINE
5
1749240395968
330
1F
100
AcDbEntity
8
None
62
255
100
AcDbPolyline
90
24
70
1
43
0.0
10
6.24
20
9.56
10
6.18
20
9.44
10
4.9
20
9.42
10
4.94
20
8.2
10
4.9
20
8.3
10
2.38
20
8.22
10
2.38
20
8.52
10
2.12
20
8.52
10
2.14
20
8.94
10
2.2
20
8.86
10
2.26
20
8.98
10
2.38
20
8.9
10
2.42
20
8.26
10
4.78
20
8.24
10
4.84
20
8.82
10
4.54
20
8.9
10
4.74
20
8.88
10
4.8
20
9.58
10
4.94
20
9.58
10
4.82
20
9.54
10
4.94
20
9.46
10
6.1
20
9.46
10
6.12
20
9.58
10
6.24
20
9.56
0
LWPOLYLINE
5
1749240395856
330
1F
100
AcDbEntity
8
None
62
255
100
AcDbPolyline
90
23
70
1
43
0.0
10
2.14
20
8.68
10
2.16
20
8.66
10
2.22
20
8.66
10
2.22
20
8.64
10
2.24
20
8.62
10
2.28
20
8.62
10
2.3
20
8.64
10
2.3
20
8.66
10
2.3
20
8.64
10
2.32
20
8.62
10
2.36
20
8.62
10
2.38
20
8.64
10
2.38
20
8.84
10
2.36
20
8.86
10
2.3
20
8.86
10
2.28
20
8.88
10
2.24
20
8.88
10
2.22
20
8.86
10
2.22
20
8.78
10
2.2
20
8.8
10
2.16
20
8.8
10
2.14
20
8.78
10
2.14
20
8.68
0
LWPOLYLINE
5
1749240396416
330
1F
100
AcDbEntity
8
None
62
255
100
AcDbPolyline
90
17
70
1
43
0.0
10
12.02
20
6.7
10
11.98
20
9.22
10
11.84
20
9.26
10
12
20
9.32
10
11.48
20
9.34
10
11.32
20
9.24
10
11.3
20
9.42
10
11.42
20
9.34
10
12.14
20
9.36
10
12.2
20
9.28
10
12.2
20
8.68
10
12.34
20
8.64
10
12.14
20
8.64
10
12.14
20
8
10
12.14
20
9.26
10
12
20
9.3
10
12.02
20
6.7
0
LWPOLYLINE
5
1749240396304
330
1F
100
AcDbEntity
8
None
62
255
100
AcDbPolyline
90
32
70
1
43
0.0
10
12.06
20
6.56
10
12.12
20
7.9
10
14.56
20
7.92
10
14.56
20
7.62
10
14.76
20
7.62
10
14.78
20
8.3
10
14.62
20
8.38
10
14.58
20
8
10
14.4
20
8
10
14.58
20
8.16
10
14.56
20
8.84
10
14.78
20
8.94
10
14.76
20
10.3
10
14.8
20
8.9
10
14.56
20
8.7
10
14.7
20
8.58
10
14.78
20
8.68
10
14.78
20
8.44
10
14.68
20
8.56
10
14.68
20
8.34
10
14.8
20
8.34
10
14.78
20
7.42
10
14.76
20
7.54
10
14.56
20
7.54
10
14.58
20
7.82
10
14.42
20
7.9
10
12.16
20
7.9
10
12.14
20
7.3
10
12.34
20
7.22
10
12.2
20
7.26
10
12.2
20
6.64
10
12.06
20
6.56
0
LWPOLYLINE
5
1749240396192
330
1F
100
AcDbEntity
8
None
62
255
100
AcDbPolyline
90
21
70
1
43
0.0
10
2.14
20
4.98
10
2.12
20
6.46
10
2.26
20
6.54
10
2.4
20
6.48
10
2.38
20
6.04
10
5.26
20
6.04
10
5.26
20
5.9
10
4.36
20
5.82
10
4.32
20
5.9
10
5.2
20
5.92
10
5.24
20
6
10
2.38
20
6.02
10
2.38
20
6.46
10
2.28
20
6.54
10
2.14
20
6.4
10
2.14
20
5.2
10
2.34
20
5.16
10
2.4
20
5.26
10
2.38
20
4.96
10
2.3
20
5.16
10
2.14
20
4.98
0
LWPOLYLINE
5
1749240396752
330
1F
100
AcDbEntity
8
None
62
255
100
AcDbPolyline
90
34
70
1
43
0.0
10
14.62
20
4
10
14.54
20
4.3
10
14.78
20
4.26
10
14.76
20
5.54
10
14.56
20
5.44
10
14.58
20
4.32
10
14.54
20
5.22
10
14.42
20
5.34
10
14.04
20
5.34
10
14.04
20
5.22
10
13.94
20
5.32
10
14.52
20
5.36
10
14.56
20
5.64
10
14.78
20
5.58
10
14.78
20
6.4
10
14.64
20
6.42
10
14.56
20
6.24
10
14.44
20
6.54
10
14.76
20
6.44
10
14.76
20
6.96
10
14.58
20
6.96
10
14.56
20
6.66
10
12.94
20
6.68
10
12.94
20
6.54
10
12.8
20
6.82
10
12.92
20
6.68
10
14.56
20
6.68
10
14.56
20
7.14
10
14.58
20
6.98
10
14.64
20
7.1
10
14.8
20
7
10
14.8
20
4.18
10
14.64
20
4.2
10
14.62
20
4
0
LWPOLYLINE
5
1749240396640
330
1F
100
AcDbEntity
8
None
62
255
100
AcDbPolyline
90
42
70
1
43
0.0
10
14.1
20
3.42
10
14.06
20
3.46
10
14.04
20
3.58
10
14.08
20
3.68
10
14.06
20
4.1
10
14.08
20
4.12
10
14.08
20
4.06
10
14.14
20
4.04
10
14.18
20
4.14
10
14.2
20
4.08
10
14.34
20
4.04
10
14.36
20
4.1
10
14.28
20
4.14
10
14.44
20
4.14
10
14.44
20
4.04
10
14.38
20
4.08
10
14.36
20
3.98
10
14.46
20
3.98
10
14.46
20
3.9
10
14.42
20
3.88
10
14.36
20
3.92
10
14.26
20
3.88
10
14.26
20
3.82
10
14.38
20
3.8
10
14.38
20
3.76
10
14.22
20
3.74
10
14.2
20
3.6
10
14.24
20
3.58
10
14.18
20
3.58
10
14.16
20
3.5
10
14.24
20
3.48
10
14.26
20
3.54
10
14.32
20
3.48
10
14.38
20
3.52
10
14.44
20
3.48
10
14.46
20
3.66
10
14.42
20
3.68
10
14.46
20
3.7
10
14.46
20
3.76
10
14.46
20
3.46
10
14.44
20
3.42
10
14.1
20
3.42
0
LWPOLYLINE
5
1749240396528
330
1F
100
AcDbEntity
8
None
62
255
100
AcDbPolyline
90
41
70
1
43
0.0
10
8.22
20
2.98
10
8.16
20
2.98
10
8.2
20
3
10
8.18
20
3.06
10
8.08
20
3.06
10
8.06
20
3.1
10
7.96
20
3.08
10
7.9
20
3.02
10
7.88
20
3.04
10
7.9
20
3.1
10
7.88
20
3.12
10
7.88
20
3.54
10
7.86
20
3.56
10
7.9
20
3.6
10
7.88
20
3.66
10
7.94
20
3.66
10
7.96
20
3.7
10
8.02
20
3.6
10
8.06
20
3.6
10
8.08
20
3.64
10
8.16
20
3.64
10
8.18
20
3.7
10
8.28
20
3.68
10
8.28
20
3.58
10
8.22
20
3.56
10
8.22
20
3.48
10
8.28
20
3.46
10
8.28
20
3.4
10
8.26
20
3.44
10
8.18
20
3.42
10
8.22
20
3.24
10
8.14
20
3.16
10
8.14
20
3.12
10
8.18
20
3.1
10
8.2
20
3.04
10
8.24
20
3.04
10
8.28
20
3.08
10
8.28
20
3.12
10
8.28
20
3.06
10
8.22
20
3.02
10
8.22
20
2.98
0
LWPOLYLINE
5
1749240397088
330
1F
100
AcDbEntity
8
None
62
255
100
AcDbPolyline
90
37
70
1
43
0.0
10
7.4
20
2.08
10
7.4
20
2.26
10
7.42
20
2.26
10
7.44
20
2.28
10
7.44
20
2.32
10
7.42
20
2.34
10
7.4
20
2.34
10
7.4
20
2.36
10
7.46
20
2.4
10
7.48
20
2.38
10
7.8
20
2.38
10
7.8
20
2.34
10
7.82
20
2.32
10
7.84
20
2.32
10
7.84
20
2.3
10
7.86
20
2.28
10
7.88
20
2.28
10
7.88
20
2.22
10
7.86
20
2.24
10
7.8
20
2.24
10
7.78
20
2.22
10
7.78
20
2.18
10
7.8
20
2.16
10
7.82
20
2.16
10
7.82
20
2.12
10
7.8
20
2.12
10
7.78
20
2.1
10
7.74
20
2.16
10
7.68
20
2.16
10
7.66
20
2.14
10
7.66
20
2.12
10
7.5
20
2.12
10
7.48
20
2.1
10
7.46
20
2.12
10
7.42
20
2.12
10
7.4
20
2.1
10
7.4
20
2.08
0
LWPOLYLINE
5
1749240396976
330
1F
100
AcDbEntity
8
None
62
255
100
AcDbPolyline
90
35
70
1
43
0.0
10
12.8
20
1.74
10
12.88
20
1.8
10
12.84
20
1.94
10
12.9
20
1.98
10
13.3
20
1.96
10
13.34
20
2
10
13.34
20
2.08
10
13.3
20
2.1
10
13.3
20
2.24
10
13.34
20
2.26
10
13.3
20
2.42
10
13.32
20
2.34
10
13.36
20
2.34
10
13.38
20
2.4
10
13.6
20
2.4
10
13.64
20
2.34
10
13.68
20
2.34
10
13.7
20
2.4
10
13.74
20
2.38
10
13.72
20
2.22
10
13.78
20
2.2
10
13.78
20
2.14
10
13.7
20
2.1
10
13.42
20
2.12
10
13.42
20
2.16
10
13.36
20
2.18
10
13.34
20
2.12
10
13.38
20
2.1
10
13.34
20
2.08
10
13.34
20
2
10
13.42
20
1.96
10
12.92
20
1.96
10
12.88
20
1.84
10
12.9
20
1.72
10
12.8
20
1.74
0
LWPOLYLINE
5
1749240396864
330
1F
100
AcDbEntity
8
None
62
255
100
AcDbPolyline
90
50
70
1
43
0.0
10
10.56
20
1.76
10
10.58
20
1.8
10
10.62
20
1.82
10
10.62
20
1.86
10
10.6
20
1.88
10
10.62
20
1.9
10
10.62
20
1.94
10
10.66
20
1.98
10
10.68
20
1.96
10
10.72
20
1.96
10
10.74
20
1.98
10
10.76
20
1.96
10
10.82
20
1.96
10
10.78
20
1.94
10
10.78
20
1.86
10
10.8
20
1.84
10
10.9
20
1.84
10
10.92
20
1.86
10
10.92
20
1.9
10
10.92
20
1.86
10
10.94
20
1.84
10
10.98
20
1.84
10
11
20
1.86
10
11
20
1.9
10
11
20
1.86
10
11.02
20
1.84
10
11.14
20
1.84
10
11.16
20
1.86
10
11.16
20
1.9
10
11.2
20
1.9
10
11.2
20
1.86
10
11.22
20
1.84
10
11.2
20
1.8
10
11.14
20
1.8
10
11.12
20
1.84
10
11
20
1.84
10
10.98
20
1.8
10
10.96
20
1.8
10
10.94
20
1.84
10
10.76
20
1.84
10
10.74
20
1.82
10
10.74
20
1.76
10
10.76
20
1.74
10
10.8
20
1.74
10
10.74
20
1.74
10
10.72
20
1.72
10
10.66
20
1.72
10
10.62
20
1.78
10
10.58
20
1.78
10
10.56
20
1.76
0
LWPOLYLINE
5
1749240397424
330
1F
100
AcDbEntity
8
None
62
255
100
AcDbPolyline
90
12
70
1
43
0.0
10
14.54
20
0.96
10
12.1
20
1.04
10
12.14
20
5.36
10
12.16
20
1.24
10
12.34
20
1.28
10
12.16
20
1.22
10
12.14
20
1.08
10
14.52
20
1.04
10
14.58
20
1.62
10
14.42
20
1.74
10
14.56
20
1.76
10
14.54
20
0.96
0
LWPOLYLINE
5
1749240397312
330
1F
100
AcDbEntity
8
None
62
255
100
AcDbPolyline
90
21
70
1
43
0.0
10
12
20
0.96
10
9.92
20
1.02
10
9.84
20
1.96
10
9.76
20
1.14
10
8.52
20
1.16
10
8.52
20
8.52
10
8.72
20
8.48
10
8.56
20
1.18
10
9.72
20
1.18
10
9.88
20
1.98
10
9.94
20
1.24
10
10.24
20
1.34
10
9.9
20
1.06
10
11.98
20
1.06
10
11.78
20
1.84
10
12
20
2.08
10
12
20
4.46
10
11.7
20
4.54
10
11.96
20
4.56
10
12.04
20
5.36
10
12
20
0.96
0
LWPOLYLINE
5
1749240397200
330
1F
100
AcDbEntity
8
None
62
255
100
AcDbPolyline
90
20
70
1
43
0.0
10
8.32
20
0.96
10
6.54
20
1.04
10
6.56
20
4.5
10
6.44
20
4.46
10
6.46
20
1.98
10
6.14
20
1.96
10
6.02
20
1.8
10
6.12
20
1.98
10
6.44
20
2
10
6.42
20
3.78
10
6.18
20
3.84
10
6.4
20
3.84
10
6.44
20
4.54
10
6.58
20
4.5
10
6.66
20
1.26
10
6.82
20
1.34
10
6.56
20
1.08
10
8.38
20
1.06
10
8.4
20
1.26
10
8.32
20
0.96
0
LWPOLYLINE
5
1749240397648
330
1F
100
AcDbEntity
8
None
62
255
100
AcDbPolyline
90
22
70
1
43
0.0
10
1.9
20
1.96
10
2.42
20
1.94
10
2.4
20
1.34
10
2.52
20
1.24
10
2.62
20
1.28
10
2.62
20
1.22
10
2.4
20
1.2
10
2.42
20
1.04
10
5.08
20
1.04
10
5.12
20
1.62
10
4.98
20
1.74
10
5.12
20
1.76
10
5.1
20
0.96
10
5.06
20
1.04
10
5
20
0.96
10
4.96
20
1.02
10
2.54
20
1.02
10
2.5
20
0.96
10
2.44
20
1.04
10
2.4
20
0.96
10
2.36
20
1.92
10
1.9
20
1.96
0
ENDSEC
0
SECTION
2
OBJECTS
0
DICTIONARY
5
C
100
AcDbDictionary
281
1
3
ACAD_GROUP
350
D
0
DICTIONARY
5
D
330
C
100
AcDbDictionary
281
1
0
ENDSEC
0
EOF